FILE "Emit Value Pack (Japan) (Disc 3) (Vol. 3 - Watashi ni Sayonara wo) (Track 01).bin" BINARY
  TRACK 01 MODE2/2352
    INDEX 01 00:00:00
FILE "Emit Value Pack (Japan) (Disc 3) (Vol. 3 - Watashi ni Sayonara wo) (Track 02).bin" BINARY
  TRACK 02 AUDIO
    INDEX 00 00:00:00
    INDEX 01 00:02:70
FILE "Emit Value Pack (Japan) (Disc 3) (Vol. 3 - Watashi ni Sayonara wo) (Track 03).bin" BINARY
  TRACK 03 AUDIO
    INDEX 00 00:00:00
    INDEX 01 00:02:17
FILE "Emit Value Pack (Japan) (Disc 3) (Vol. 3 - Watashi ni Sayonara wo) (Track 04).bin" BINARY
  TRACK 04 AUDIO
    INDEX 00 00:00:00
    INDEX 01 00:02:56
FILE "Emit Value Pack (Japan) (Disc 3) (Vol. 3 - Watashi ni Sayonara wo) (Track 05).bin" BINARY
  TRACK 05 AUDIO
    INDEX 00 00:00:00
    INDEX 01 00:02:67
FILE "Emit Value Pack (Japan) (Disc 3) (Vol. 3 - Watashi ni Sayonara wo) (Track 06).bin" BINARY
  TRACK 06 AUDIO
    INDEX 00 00:00:00
    INDEX 01 00:02:49
FILE "Emit Value Pack (Japan) (Disc 3) (Vol. 3 - Watashi ni Sayonara wo) (Track 07).bin" BINARY
  TRACK 07 AUDIO
    INDEX 00 00:00:00
    INDEX 01 00:02:40
FILE "Emit Value Pack (Japan) (Disc 3) (Vol. 3 - Watashi ni Sayonara wo) (Track 08).bin" BINARY
  TRACK 08 AUDIO
    INDEX 00 00:00:00
    INDEX 01 00:02:67
FILE "Emit Value Pack (Japan) (Disc 3) (Vol. 3 - Watashi ni Sayonara wo) (Track 09).bin" BINARY
  TRACK 09 AUDIO
    INDEX 00 00:00:00
    INDEX 01 00:02:31
FILE "Emit Value Pack (Japan) (Disc 3) (Vol. 3 - Watashi ni Sayonara wo) (Track 10).bin" BINARY
  TRACK 10 AUDIO
    INDEX 00 00:00:00
    INDEX 01 00:02:58
FILE "Emit Value Pack (Japan) (Disc 3) (Vol. 3 - Watashi ni Sayonara wo) (Track 11).bin" BINARY
  TRACK 11 AUDIO
    INDEX 00 00:00:00
    INDEX 01 00:02:03
FILE "Emit Value Pack (Japan) (Disc 3) (Vol. 3 - Watashi ni Sayonara wo) (Track 12).bin" BINARY
  TRACK 12 AUDIO
    INDEX 00 00:00:00
    INDEX 01 00:02:62
FILE "Emit Value Pack (Japan) (Disc 3) (Vol. 3 - Watashi ni Sayonara wo) (Track 13).bin" BINARY
  TRACK 13 AUDIO
    INDEX 00 00:00:00
    INDEX 01 00:02:49
FILE "Emit Value Pack (Japan) (Disc 3) (Vol. 3 - Watashi ni Sayonara wo) (Track 14).bin" BINARY
  TRACK 14 AUDIO
    INDEX 00 00:00:00
    INDEX 01 00:02:02
FILE "Emit Value Pack (Japan) (Disc 3) (Vol. 3 - Watashi ni Sayonara wo) (Track 15).bin" BINARY
  TRACK 15 AUDIO
    INDEX 00 00:00:00
    INDEX 01 00:02:00
FILE "Emit Value Pack (Japan) (Disc 3) (Vol. 3 - Watashi ni Sayonara wo) (Track 16).bin" BINARY
  TRACK 16 AUDIO
    INDEX 00 00:00:00
    INDEX 01 00:02:42
FILE "Emit Value Pack (Japan) (Disc 3) (Vol. 3 - Watashi ni Sayonara wo) (Track 17).bin" BINARY
  TRACK 17 AUDIO
    INDEX 00 00:00:00
    INDEX 01 00:02:28
FILE "Emit Value Pack (Japan) (Disc 3) (Vol. 3 - Watashi ni Sayonara wo) (Track 18).bin" BINARY
  TRACK 18 AUDIO
    INDEX 00 00:00:00
    INDEX 01 00:02:08
FILE "Emit Value Pack (Japan) (Disc 3) (Vol. 3 - Watashi ni Sayonara wo) (Track 19).bin" BINARY
  TRACK 19 AUDIO
    INDEX 00 00:00:00
    INDEX 01 00:02:30
FILE "Emit Value Pack (Japan) (Disc 3) (Vol. 3 - Watashi ni Sayonara wo) (Track 20).bin" BINARY
  TRACK 20 AUDIO
    INDEX 00 00:00:00
    INDEX 01 00:02:05
FILE "Emit Value Pack (Japan) (Disc 3) (Vol. 3 - Watashi ni Sayonara wo) (Track 21).bin" BINARY
  TRACK 21 AUDIO
    INDEX 00 00:00:00
    INDEX 01 00:02:45
FILE "Emit Value Pack (Japan) (Disc 3) (Vol. 3 - Watashi ni Sayonara wo) (Track 22).bin" BINARY
  TRACK 22 AUDIO
    INDEX 00 00:00:00
    INDEX 01 00:02:14
FILE "Emit Value Pack (Japan) (Disc 3) (Vol. 3 - Watashi ni Sayonara wo) (Track 23).bin" BINARY
  TRACK 23 AUDIO
    INDEX 00 00:00:00
    INDEX 01 00:02:53
FILE "Emit Value Pack (Japan) (Disc 3) (Vol. 3 - Watashi ni Sayonara wo) (Track 24).bin" BINARY
  TRACK 24 AUDIO
    INDEX 00 00:00:00
    INDEX 01 00:02:24
FILE "Emit Value Pack (Japan) (Disc 3) (Vol. 3 - Watashi ni Sayonara wo) (Track 25).bin" BINARY
  TRACK 25 AUDIO
    INDEX 00 00:00:00
    INDEX 01 00:02:18
FILE "Emit Value Pack (Japan) (Disc 3) (Vol. 3 - Watashi ni Sayonara wo) (Track 26).bin" BINARY
  TRACK 26 AUDIO
    INDEX 00 00:00:00
    INDEX 01 00:02:11
FILE "Emit Value Pack (Japan) (Disc 3) (Vol. 3 - Watashi ni Sayonara wo) (Track 27).bin" BINARY
  TRACK 27 AUDIO
    INDEX 00 00:00:00
    INDEX 01 00:02:50
FILE "Emit Value Pack (Japan) (Disc 3) (Vol. 3 - Watashi ni Sayonara wo) (Track 28).bin" BINARY
  TRACK 28 AUDIO
    INDEX 00 00:00:00
    INDEX 01 00:02:46
FILE "Emit Value Pack (Japan) (Disc 3) (Vol. 3 - Watashi ni Sayonara wo) (Track 29).bin" BINARY
  TRACK 29 AUDIO
    INDEX 00 00:00:00
    INDEX 01 00:02:48
FILE "Emit Value Pack (Japan) (Disc 3) (Vol. 3 - Watashi ni Sayonara wo) (Track 30).bin" BINARY
  TRACK 30 AUDIO
    INDEX 00 00:00:00
    INDEX 01 00:02:36
FILE "Emit Value Pack (Japan) (Disc 3) (Vol. 3 - Watashi ni Sayonara wo) (Track 31).bin" BINARY
  TRACK 31 AUDIO
    INDEX 00 00:00:00
    INDEX 01 00:02:21
FILE "Emit Value Pack (Japan) (Disc 3) (Vol. 3 - Watashi ni Sayonara wo) (Track 32).bin" BINARY
  TRACK 32 AUDIO
    INDEX 00 00:00:00
    INDEX 01 00:02:73
FILE "Emit Value Pack (Japan) (Disc 3) (Vol. 3 - Watashi ni Sayonara wo) (Track 33).bin" BINARY
  TRACK 33 AUDIO
    INDEX 00 00:00:00
    INDEX 01 00:02:73
